<svg width="24" height="24" viewBox="0 0 24 24" fill="none" xmlns="http://www.w3.org/2000/svg">
<path fill-rule="evenodd" clip-rule="evenodd" d="M12 21.6C17.302 21.6 21.6 17.3019 21.6 12C21.6 6.69807 17.302 2.4 12 2.4C6.69809 2.4 2.40002 6.69807 2.40002 12C2.40002 17.3019 6.69809 21.6 12 21.6ZM11.4657 8.60154C11.0974 8.35606 10.624 8.33317 10.2338 8.54199C9.84361 8.75082 9.60002 9.15745 9.60002 9.6V14.4C9.60002 14.8426 9.84361 15.2492 10.2338 15.458C10.624 15.6668 11.0974 15.6439 11.4657 15.3985L15.0657 12.9985C15.3995 12.7759 15.6 12.4012 15.6 12C15.6 11.5988 15.3995 11.2241 15.0657 11.0015L11.4657 8.60154Z" fill="#4ADE80"/>
</svg>
