<svg width="47" height="47" viewBox="0 0 47 47" fill="none" xmlns="http://www.w3.org/2000/svg">
<path fill-rule="evenodd" clip-rule="evenodd" d="M23.5 42.3C33.883 42.3 42.3 33.8829 42.3 23.5C42.3 13.117 33.883 4.7 23.5 4.7C13.117 4.7 4.7 13.117 4.7 23.5C4.7 33.8829 13.117 42.3 23.5 42.3ZM22.4535 16.8447C21.7324 16.3639 20.8053 16.3191 20.0411 16.7281C19.277 17.137 18.8 17.9333 18.8 18.8V28.2C18.8 29.0667 19.277 29.863 20.0411 30.2719C20.8053 30.6809 21.7324 30.6361 22.4535 30.1553L29.5035 25.4553C30.1573 25.0195 30.55 24.2857 30.55 23.5C30.55 22.7143 30.1573 21.9805 29.5035 21.5447L22.4535 16.8447Z" fill="#4ADE80"/>
</svg>
