<svg width="34" height="34" viewBox="0 0 34 34" fill="none" xmlns="http://www.w3.org/2000/svg">
<path d="M17.7083 4.25C24.2958 4.25 29.8633 8.5425 31.8325 14.4783L28.475 15.5833C26.9875 11.0642 22.7233 7.79167 17.7083 7.79167C14.9317 7.79167 12.4242 8.81167 10.455 10.455L14.1667 14.1667H4.25V4.25L7.93333 7.93333C10.5542 5.66667 13.9542 4.25 17.7083 4.25ZM12.75 17H21.25V19.8333H15.5833V22.6667H18.4167C19.1681 22.6667 19.8888 22.9652 20.4201 23.4965C20.9515 24.0279 21.25 24.7486 21.25 25.5V28.3333C21.25 29.9058 19.9892 31.1667 18.4167 31.1667H12.75V28.3333H18.4167V25.5H12.75V17Z" fill="white"/>
</svg>
