<svg width="34" height="34" viewBox="0 0 34 34" fill="none" xmlns="http://www.w3.org/2000/svg">
<path d="M16.2917 4.25C20.0458 4.25 23.4458 5.66667 26.0667 7.93333L29.75 4.25V14.1667H19.8333L23.545 10.455C21.5758 8.81167 19.0683 7.79167 16.2917 7.79167C11.2767 7.79167 7.0125 11.0642 5.525 15.5833L2.1675 14.4783C4.13667 8.5425 9.70417 4.25 16.2917 4.25ZM12.75 17H21.25V19.8333H15.5833V22.6667H18.4167C19.1681 22.6667 19.8888 22.9652 20.4201 23.4965C20.9515 24.0279 21.25 24.7486 21.25 25.5V28.3333C21.25 29.9058 19.9892 31.1667 18.4167 31.1667H12.75V28.3333H18.4167V25.5H12.75V17Z" fill="white"/>
</svg>
